<svg width="58" height="29" viewBox="0 0 58 29" fill="none" xmlns="http://www.w3.org/2000/svg">
<g clip-path="url(#clip0_1_16)">
<path d="M1.72159 23V5.54545H4.88352V20.3494H12.571V23H1.72159ZM20.8892 23.2557C19.6108 23.2557 18.5028 22.9744 17.5653 22.4119C16.6278 21.8494 15.9006 21.0625 15.3835 20.0511C14.8722 19.0398 14.6165 17.858 14.6165 16.5057C14.6165 15.1534 14.8722 13.9687 15.3835 12.9517C15.9006 11.9347 16.6278 11.1449 17.5653 10.5824C18.5028 10.0199 19.6108 9.73864 20.8892 9.73864C22.1676 9.73864 23.2756 10.0199 24.2131 10.5824C25.1506 11.1449 25.875 11.9347 26.3864 12.9517C26.9034 13.9687 27.1619 15.1534 27.1619 16.5057C27.1619 17.858 26.9034 19.0398 26.3864 20.0511C25.875 21.0625 25.1506 21.8494 24.2131 22.4119C23.2756 22.9744 22.1676 23.2557 20.8892 23.2557ZM20.9062 20.7841C21.5994 20.7841 22.179 20.5937 22.6449 20.2131C23.1108 19.8267 23.4574 19.3097 23.6847 18.6619C23.9176 18.0142 24.0341 17.2926 24.0341 16.4972C24.0341 15.696 23.9176 14.9716 23.6847 14.3239C23.4574 13.6705 23.1108 13.1506 22.6449 12.7642C22.179 12.3778 21.5994 12.1847 20.9062 12.1847C20.196 12.1847 19.6051 12.3778 19.1335 12.7642C18.6676 13.1506 18.3182 13.6705 18.0852 14.3239C17.858 14.9716 17.7443 15.696 17.7443 16.4972C17.7443 17.2926 17.858 18.0142 18.0852 18.6619C18.3182 19.3097 18.6676 19.8267 19.1335 20.2131C19.6051 20.5937 20.196 20.7841 20.9062 20.7841ZM35.4737 28.1818C34.3658 28.1818 33.4141 28.0313 32.6186 27.7301C31.8232 27.4347 31.1839 27.0369 30.701 26.5369C30.218 26.0369 29.8828 25.483 29.6953 24.875L32.4737 24.2017C32.5987 24.4574 32.7805 24.7102 33.0192 24.9602C33.2578 25.2159 33.5788 25.4261 33.9822 25.5909C34.3913 25.7614 34.9055 25.8466 35.5249 25.8466C36.3999 25.8466 37.1243 25.6335 37.6982 25.2074C38.272 24.7869 38.5589 24.0938 38.5589 23.1278V20.6477H38.4055C38.2464 20.9659 38.0135 21.2926 37.7067 21.6278C37.4055 21.9631 37.005 22.2443 36.505 22.4716C36.0107 22.6989 35.3885 22.8125 34.6385 22.8125C33.6328 22.8125 32.7209 22.5767 31.9027 22.1051C31.0902 21.6278 30.4425 20.9176 29.9595 19.9744C29.4822 19.0256 29.2436 17.8381 29.2436 16.4119C29.2436 14.9744 29.4822 13.7614 29.9595 12.7727C30.4425 11.7784 31.093 11.0256 31.9112 10.5142C32.7294 9.99716 33.6413 9.73864 34.647 9.73864C35.4141 9.73864 36.0447 9.86932 36.5391 10.1307C37.0391 10.3864 37.4368 10.696 37.7322 11.0597C38.0277 11.4176 38.2521 11.7557 38.4055 12.0739H38.576V9.90909H41.6186V23.2131C41.6186 24.3324 41.3516 25.2585 40.8175 25.9915C40.2834 26.7244 39.5533 27.2727 38.6271 27.6364C37.701 28 36.6499 28.1818 35.4737 28.1818ZM35.4993 20.392C36.1527 20.392 36.7095 20.233 37.1697 19.9148C37.63 19.5966 37.9794 19.1392 38.218 18.5426C38.4567 17.946 38.576 17.2301 38.576 16.3949C38.576 15.571 38.4567 14.8494 38.218 14.2301C37.9851 13.6108 37.6385 13.1307 37.1783 12.7898C36.7237 12.4432 36.1641 12.2699 35.4993 12.2699C34.8118 12.2699 34.2379 12.4489 33.7777 12.8068C33.3175 13.1648 32.9709 13.6562 32.7379 14.2812C32.505 14.9006 32.3885 15.6051 32.3885 16.3949C32.3885 17.196 32.505 17.8977 32.7379 18.5C32.9766 19.0966 33.326 19.5625 33.7862 19.8977C34.2521 20.2273 34.8232 20.392 35.4993 20.392ZM50.4908 23.2557C49.2124 23.2557 48.1044 22.9744 47.1669 22.4119C46.2294 21.8494 45.5021 21.0625 44.9851 20.0511C44.4737 19.0398 44.218 17.858 44.218 16.5057C44.218 15.1534 44.4737 13.9687 44.9851 12.9517C45.5021 11.9347 46.2294 11.1449 47.1669 10.5824C48.1044 10.0199 49.2124 9.73864 50.4908 9.73864C51.7692 9.73864 52.8771 10.0199 53.8146 10.5824C54.7521 11.1449 55.4766 11.9347 55.9879 12.9517C56.505 13.9687 56.7635 15.1534 56.7635 16.5057C56.7635 17.858 56.505 19.0398 55.9879 20.0511C55.4766 21.0625 54.7521 21.8494 53.8146 22.4119C52.8771 22.9744 51.7692 23.2557 50.4908 23.2557ZM50.5078 20.7841C51.201 20.7841 51.7805 20.5937 52.2464 20.2131C52.7124 19.8267 53.0589 19.3097 53.2862 18.6619C53.5192 18.0142 53.6357 17.2926 53.6357 16.4972C53.6357 15.696 53.5192 14.9716 53.2862 14.3239C53.0589 13.6705 52.7124 13.1506 52.2464 12.7642C51.7805 12.3778 51.201 12.1847 50.5078 12.1847C49.7976 12.1847 49.2067 12.3778 48.7351 12.7642C48.2692 13.1506 47.9197 13.6705 47.6868 14.3239C47.4595 14.9716 47.3459 15.696 47.3459 16.4972C47.3459 17.2926 47.4595 18.0142 47.6868 18.6619C47.9197 19.3097 48.2692 19.8267 48.7351 20.2131C49.2067 20.5937 49.7976 20.7841 50.5078 20.7841Z" fill="#00ECFA"/>
</g>
<defs>
<clipPath id="clip0_1_16">
<rect width="58" height="29" fill="white"/>
</clipPath>
</defs>
</svg>
