<svg width="30" height="28" viewBox="0 0 30 28" fill="none" xmlns="http://www.w3.org/2000/svg">
<path fill-rule="evenodd" clip-rule="evenodd" d="M26.8925 0.191557C27.2614 0.0219435 27.6651 -0.036555 28.0617 0.0221494C28.4582 0.0808537 28.8332 0.254615 29.1474 0.525348C29.4617 0.79608 29.7037 1.15389 29.8485 1.56152C29.9932 1.96916 30.0353 2.41173 29.9703 2.84316L26.585 25.2774C26.2566 27.4415 24.0834 28.6825 22.2669 27.6045C20.7474 26.7027 18.4905 25.3133 16.4605 23.8636C15.4455 23.1379 12.3364 20.8141 12.7185 19.1605C13.0469 17.7466 18.2711 12.4336 21.2563 9.27486C22.4281 8.03385 21.8937 7.31795 20.51 8.45948C17.0725 11.2937 11.5573 15.6038 9.73326 16.8171C8.12421 17.8869 7.28535 18.0695 6.2823 17.8869C4.45234 17.5542 2.75522 17.0389 1.37007 16.411C-0.50169 15.563 -0.41064 12.7516 1.36857 11.933L26.8925 0.191557Z" fill="#36A6DE"/>
</svg>
