<svg width="102" height="28" viewBox="0 0 102 28" fill="none" xmlns="http://www.w3.org/2000/svg">
<path d="M40.0648 23V7.10727H42.4714L48.2609 16.5294L47.103 16.5067L52.9606 7.10727H55.231V23H52.779V16.484C52.779 15.1217 52.8093 13.8957 52.8698 12.806C52.9455 11.7162 53.0666 10.6339 53.2331 9.55929L53.5509 10.3993L48.3517 18.4365H46.8533L41.813 10.4902L42.0628 9.55929C42.2293 10.5734 42.3428 11.6178 42.4033 12.6924C42.479 13.7519 42.5168 15.0158 42.5168 16.484V23H40.0648ZM59.4825 23V11.0805H61.821V23H59.4825ZM60.6177 8.4468C60.1182 8.4468 59.7323 8.31815 59.4598 8.06084C59.1874 7.80353 59.0511 7.44026 59.0511 6.97105C59.0511 6.53211 59.1874 6.17641 59.4598 5.90397C59.7474 5.63152 60.1334 5.4953 60.6177 5.4953C61.1172 5.4953 61.5032 5.62395 61.7756 5.88126C62.048 6.13857 62.1843 6.50184 62.1843 6.97105C62.1843 7.40999 62.0405 7.76569 61.7529 8.03813C61.4804 8.31058 61.1021 8.4468 60.6177 8.4468ZM65.4155 23V11.0805H67.754V13.5325L67.3453 13.8049C67.4967 13.2752 67.7918 12.7908 68.2308 12.3519C68.6697 11.8978 69.1919 11.5345 69.7973 11.2621C70.4028 10.9745 71.0234 10.8307 71.6591 10.8307C72.5672 10.8307 73.324 11.0123 73.9295 11.3756C74.5349 11.7237 74.989 12.2611 75.2917 12.9876C75.5944 13.7141 75.7458 14.6298 75.7458 15.7348V23H73.4073V15.8937C73.4073 15.2126 73.3165 14.6525 73.1348 14.2136C72.9532 13.7595 72.6732 13.4341 72.2948 13.2373C71.9164 13.0254 71.4472 12.9346 70.8871 12.9649C70.4331 12.9649 70.0168 13.0406 69.6384 13.1919C69.26 13.3281 68.927 13.5249 68.6394 13.7822C68.367 14.0395 68.1475 14.3422 67.981 14.6904C67.8297 15.0234 67.754 15.3866 67.754 15.7802V23H66.5961C66.3993 23 66.2026 23 66.0058 23C65.809 23 65.6123 23 65.4155 23ZM80.3939 23V8.03813H82.7324V23H80.3939ZM77.9191 13.3508V11.0805H85.5022V13.3508H77.9191ZM97.8938 23L92.967 15.871L86.6553 7.10727H89.7658L94.579 14.1455L101.004 23H97.8938ZM86.5418 23L92.6038 14.3498L94.1249 16.1434L89.4252 23H86.5418ZM94.9423 15.6212L93.4438 13.8957L97.8938 7.10727H100.777L94.9423 15.6212Z" fill="white"/>
<g clip-path="url(#clip0_179_157)">
<path d="M14.0366 11.3711L14.9618 13.3544C15.2316 12.7944 15.4089 12.4857 15.5338 12.1623C16.5516 9.53037 17.5651 6.89758 18.5746 4.2639C19.0048 3.14798 19.7512 2.30068 21.1837 2.10022C22.6671 1.89307 24.0518 2.54124 24.6131 3.89371C25.1605 5.21144 25.5136 6.59198 25.8945 7.95648C25.9669 8.22377 25.822 8.55254 25.7002 8.82784C24.5252 11.49 23.3348 14.1469 22.0734 16.9721L21.1683 14.9086C20.0457 17.8114 19.0419 20.388 18.0504 22.974C17.4675 24.515 16.4344 25.2219 14.6487 25.0495C13.9302 24.976 13.1962 24.5885 12.5979 24.1955C12.2113 23.9435 11.8986 23.6162 11.685 23.24C10.3728 20.9975 10.6056 18.5879 11.867 16.3146C12.7197 14.7817 13.2764 13.1312 14.0366 11.3711Z" fill="#00ECFA"/>
<path d="M8.48119 15.2522C8.05868 16.7463 7.64389 18.2405 7.21522 19.7333C6.88678 20.8759 6.62156 22.0386 6.18363 23.1506C5.48511 24.92 3.98167 25.5428 2.03877 24.9855C0.373422 24.5057 -0.331268 23.1532 0.148291 21.4653C1.67332 16.1115 3.1675 10.7511 4.70332 5.39998C4.91303 4.67029 5.17826 3.91654 5.61773 3.27773C6.74492 1.64326 9.68086 1.52966 10.6677 3.21223C11.7332 5.02444 12.3454 7.03846 13.1241 8.97496C13.1981 9.16072 13.0887 9.42668 12.9977 9.63383C11.9183 12.0875 10.8389 14.5359 9.66544 17.186L8.74025 15.2629L8.48119 15.2522Z" fill="#00ECFA"/>
<path d="M26.7472 10.8619C27.8266 14.6601 28.9137 18.346 29.8929 22.0519C30.2306 23.3296 29.2005 24.6246 27.8096 25.0081C26.2229 25.4452 24.6393 24.9988 23.9963 23.7145C23.0927 21.9076 22.3633 20.0967 23.4397 18.0413C24.5992 15.8295 25.4442 13.4974 26.4373 11.2174C26.5288 11.0915 26.6325 10.9726 26.7472 10.8619Z" fill="#00ECFA"/>
</g>
<defs>
<clipPath id="clip0_179_157">
<rect width="29.9577" height="23.1832" fill="white" transform="translate(0 2)"/>
</clipPath>
</defs>
</svg>
