<svg width="28" height="28" viewBox="0 0 28 28" fill="none" xmlns="http://www.w3.org/2000/svg">
<path d="M5.80067 13.3959C5.80067 12.7457 6.32897 12.2116 6.97097 12.2116H8.94488C9.58799 12.2116 10.1386 12.7457 10.1386 13.4196V20.9455C10.3682 20.8756 10.6435 20.8057 10.9656 20.7359C11.4014 20.6198 11.7235 20.2254 11.7235 19.7601V10.4223C11.7235 9.77209 12.2518 9.21432 12.9172 9.21432H14.8911C15.5342 9.21432 16.0848 9.74843 16.0848 10.4223V19.0874C16.0848 19.0874 16.5674 18.8778 17.0489 18.6693C17.4168 18.5071 17.6464 18.1589 17.6464 17.7397V7.40355C17.6464 6.75338 18.1747 6.19562 18.8178 6.19562H20.7917C21.4348 6.19562 21.9631 6.72972 21.9631 7.40355V15.9289C23.6617 14.6748 25.4071 13.1649 26.7847 11.353C27.1982 10.8189 27.313 10.1214 27.0834 9.47123C24.5578 2.13123 16.6154 -1.77201 9.36061 0.783578C2.10585 3.33917 -1.75057 11.3755 0.77394 18.7167C1.04924 19.5527 1.41705 20.3426 1.85285 21.1089C2.19725 21.7128 2.84036 22.061 3.52917 21.9911C3.89697 21.9675 4.35618 21.9213 4.92907 21.8514C5.43397 21.8052 5.80178 21.3635 5.80178 20.8519L5.80067 13.3959Z" fill="#324B89"/>
<path d="M5.6001 25.2832C11.9039 29.8973 20.7205 28.4918 25.3022 22.145C27.047 19.709 28.0001 16.781 28.0001 13.7837C28.0001 13.4554 27.9764 13.1282 27.9538 12.7998C22.8143 20.5521 13.2998 24.1822 5.6001 25.2832Z" fill="#979695"/>
</svg>
