<svg width="28" height="32" viewBox="0 0 28 32" fill="none" xmlns="http://www.w3.org/2000/svg">
<path fill-rule="evenodd" clip-rule="evenodd" d="M10.4149 1.80324C8.49954 2.7971 6.92533 3.63623 6.93131 3.67194C6.93131 3.76121 11.5342 6.07625 11.6958 6.0703C11.7677 6.0703 12.3064 5.82035 12.893 5.52278L13.9584 4.98122L15.1196 5.57634L16.2808 6.17147L18.1842 5.32044C21.0453 4.04091 21.3446 3.89808 21.2967 3.85642C21.2369 3.79096 20.2074 3.24344 17.4181 1.78538C16.0713 1.08313 14.7665 0.386832 14.5151 0.249952C14.2637 0.107122 14.0242 0 13.9823 0C13.9404 0 12.3303 0.809372 10.4149 1.80324ZM2.00517 6.13576L0.00598596 7.15938V11.6585C0.00598596 14.1343 0.0299283 16.1577 0.0658419 16.1577C0.0957698 16.1577 1.07741 15.7352 2.25058 15.2174L4.37547 14.2771V9.53394L5.41097 10.0934C6.21304 10.5278 7.00913 10.9563 7.8112 11.3907L9.17591 12.1227L9.78046 11.849C10.1635 11.6764 10.5406 11.5038 10.9177 11.3312C11.211 11.1943 11.9293 10.873 12.5159 10.6171C13.1025 10.3612 13.6412 10.0993 13.719 10.0398C13.8207 9.96243 12.5757 9.27804 9.11605 7.51051C6.50634 6.17742 4.28568 5.09429 4.18393 5.10024C4.08217 5.10619 3.10054 5.57039 2.00517 6.13576ZM21.6499 6.42142C20.2912 7.0344 19.1778 7.55812 19.1778 7.58787C19.1778 7.61763 19.92 8.05802 20.8239 8.56388C21.7337 9.06974 22.4699 9.51013 22.4699 9.54584C22.4699 9.58155 21.6678 9.96838 20.6862 10.4028C19.7046 10.8432 17.2265 11.9561 15.1735 12.8786L8.308 15.9673C6.57816 16.7409 5.02191 17.4432 4.84833 17.5205C1.32282 19.1095 0.347165 19.5499 0.215482 19.6273C0.0837986 19.7047 0.0538703 20.1451 0.029928 22.3649L0 25.0132L1.78371 25.9178L3.56741 26.8224L6.04545 25.7095C7.40418 25.0965 8.52348 24.5669 8.52348 24.5252C8.52348 24.4835 8.27209 24.3229 7.96682 24.1622C7.66156 24.0015 7.02708 23.6444 6.55422 23.3707C6.08735 23.0969 5.62047 22.8469 5.51872 22.8112C5.41696 22.7755 5.33316 22.722 5.33316 22.6803C5.33316 22.6446 6.42254 22.1268 7.75733 21.5377C10.3431 20.3891 12.3183 19.5023 16.5621 17.592C18.4596 16.7409 20.357 15.8839 22.2604 15.0329C23.9304 14.2831 25.8697 13.4082 26.57 13.0868L27.845 12.5036L27.8749 9.82555L27.9048 7.14748L26.0972 6.23098C25.1036 5.72513 24.2476 5.30854 24.2057 5.30854C24.1578 5.30854 23.0086 5.81439 21.6499 6.42142ZM27.3661 16.0863C27.0968 16.2172 26.57 16.4612 26.1929 16.6279C25.8159 16.7945 25.0976 17.1159 24.6008 17.342L23.697 17.7526L23.679 20.1034C23.667 21.3948 23.6191 22.4482 23.5713 22.4423C23.4635 22.4244 21.7696 21.5615 20.0637 20.6509C18.8307 19.9963 18.7529 19.9665 18.4655 20.1094C18.298 20.1927 17.2984 20.639 16.2449 21.0973C15.1914 21.5615 14.2936 21.9662 14.2517 22.0078C14.2098 22.0435 16.3287 23.1862 18.9683 24.549L23.7568 27.0247L25.8039 25.9714C26.9292 25.3941 27.8869 24.8644 27.9288 24.799C28.0305 24.6502 28.0186 15.8304 27.9228 15.8423C27.8809 15.8482 27.6295 15.9554 27.3661 16.0863ZM16.0294 26.4356C15.6763 26.5843 15.3171 26.7391 14.964 26.8938C13.8926 27.3521 14.1021 27.3699 12.8271 26.7391C11.9772 26.3165 11.612 26.1916 11.4504 26.2511C11.3307 26.2987 10.3072 26.7569 9.16993 27.2687C8.03865 27.7805 7.06898 28.2031 7.0211 28.2031C6.54225 28.2031 7.33834 28.6732 10.391 30.2027L13.9704 32L15.4787 31.262C16.3048 30.8574 17.9807 30.042 19.1898 29.4529C20.4049 28.8637 21.3805 28.3697 21.3626 28.3459C21.3446 28.3281 20.3271 27.8103 19.1 27.1914L16.8734 26.0725L16.0294 26.4356Z" fill="#05A3C9"/>
</svg>
