<svg width="36" height="42" viewBox="0 0 36 42" fill="none" xmlns="http://www.w3.org/2000/svg">
<path d="M14.3146 9.42248C13.8742 9.35221 13.8556 9.34402 14.0629 9.31124C14.4601 9.24846 15.398 9.33402 16.0442 9.49195C17.5531 9.86047 18.9261 10.8044 20.3916 12.481L20.7809 12.9264L21.3379 12.8344C23.6844 12.4469 26.0715 12.7549 28.068 13.7025C28.6172 13.9632 29.4833 14.4822 29.5915 14.6155C29.6259 14.6581 29.6893 14.9317 29.7321 15.2236C29.8804 16.2336 29.8062 17.0078 29.5055 17.5861C29.3419 17.9008 29.3327 18.0004 29.4427 18.2698C29.5306 18.4847 29.7753 18.6437 30.0178 18.6433C30.5139 18.6427 31.048 17.8186 31.2955 16.6719L31.3937 16.2165L31.5885 16.443C32.6564 17.6864 33.4953 19.3819 33.6394 20.5888L33.677 20.9034L33.4974 20.6174C33.1884 20.1251 32.878 19.7901 32.4805 19.5198C31.764 19.0326 31.0062 18.8668 28.9996 18.7581C27.1874 18.6601 26.1616 18.501 25.1446 18.1602C23.4141 17.5806 22.5418 16.8086 20.4864 14.0377C19.5734 12.8069 19.0091 12.126 18.4478 11.5777C17.1722 10.3315 15.9189 9.67816 14.3146 9.42248Z" fill="#FF007A"/>
<path d="M30.0319 12.0167C30.0757 11.2207 30.1804 10.6957 30.3908 10.2163C30.474 10.0264 30.5521 9.87109 30.5641 9.87109C30.5762 9.87109 30.54 10.0112 30.4837 10.1824C30.3308 10.6477 30.3056 11.2842 30.411 12.0246C30.5447 12.9643 30.6208 13.0998 31.5836 14.1147C32.0351 14.5908 32.5604 15.1912 32.7508 15.449L33.097 15.9177L32.7508 15.5827C32.3274 15.1731 31.3537 14.3742 31.1386 14.26C30.9943 14.1835 30.9729 14.1848 30.884 14.2761C30.802 14.3602 30.7847 14.4867 30.7733 15.0845C30.7557 16.0163 30.6325 16.6143 30.3353 17.2122C30.1747 17.5357 30.1493 17.4666 30.2947 17.1016C30.4033 16.8291 30.4144 16.7092 30.4135 15.8072C30.4118 13.995 30.2033 13.5593 28.98 12.8129C28.6701 12.6238 28.1596 12.3512 27.8454 12.207C27.5312 12.0627 27.2817 11.9371 27.2908 11.9277C27.3254 11.8922 28.5183 12.2514 28.9985 12.4418C29.7127 12.7252 29.8307 12.7619 29.9174 12.7277C29.9755 12.7049 30.0037 12.5302 30.0319 12.0167Z" fill="#FF007A"/>
<path d="M14.7572 15.5844C13.8242 14.3121 13.247 12.3612 13.3719 10.9029L13.4106 10.4517L13.6229 10.4901C14.0218 10.5621 14.7094 10.8157 15.0314 11.0093C15.915 11.5409 16.2975 12.2408 16.6866 14.0379C16.8006 14.5643 16.9502 15.1601 17.0191 15.3617C17.1298 15.6864 17.5484 16.4445 17.8889 16.937C18.134 17.2917 17.9711 17.4597 17.4293 17.4112C16.6016 17.3372 15.4804 16.5707 14.7572 15.5844Z" fill="#FF007A"/>
<path d="M28.9602 24.4162C24.7192 22.6934 23.2256 21.1981 23.2256 18.6751C23.2256 18.3037 23.2382 18 23.2537 18C23.2691 18 23.4332 18.1225 23.6184 18.2722C24.4783 18.9682 25.4413 19.2654 28.1073 19.6578C29.6761 19.8887 30.559 20.0752 31.3733 20.3477C33.9617 21.2138 35.5633 22.9714 35.9452 25.3654C36.0562 26.0609 35.9911 27.3655 35.8111 28.0529C35.6691 28.5959 35.2356 29.5747 35.1207 29.6123C35.0888 29.6227 35.0575 29.4994 35.0494 29.3318C35.0058 28.4328 34.5555 27.5577 33.7993 26.9021C32.9396 26.1568 31.7845 25.5634 28.9602 24.4162Z" fill="#FF007A"/>
<path d="M25.9733 25.5332C25.9196 25.236 25.8265 24.8565 25.7665 24.6898L25.6571 24.3867L25.8602 24.5988C26.141 24.8922 26.3631 25.2677 26.5511 25.7678C26.6947 26.1496 26.7109 26.2631 26.7098 26.8834C26.7087 27.4923 26.6907 27.6199 26.5582 27.9635C26.3491 28.5053 26.0897 28.8895 25.6543 29.3018C24.8719 30.0428 23.8661 30.4532 22.4147 30.6234C22.1623 30.6529 21.4269 30.7027 20.7804 30.734C19.1511 30.8129 18.0788 30.9757 17.1153 31.2906C16.9767 31.336 16.8531 31.3635 16.8405 31.3518C16.8015 31.3157 17.4575 30.9517 17.9995 30.7088C18.7634 30.3662 19.524 30.1793 21.2281 29.9152C22.0699 29.7847 22.9392 29.6264 23.16 29.5634C25.2446 28.9685 26.3162 27.4334 25.9733 25.5332Z" fill="#FF007A"/>
<path d="M27.8558 28.6562C27.274 27.4433 27.1404 26.2722 27.4591 25.18C27.4933 25.0633 27.548 24.9678 27.5811 24.9678C27.614 24.9678 27.7513 25.0397 27.8861 25.1277C28.1542 25.3027 28.692 25.5976 30.1245 26.355C31.9122 27.3002 32.9315 28.0321 33.6246 28.8684C34.2316 29.6007 34.6073 30.4346 34.7881 31.4517C34.8904 32.0278 34.8305 33.4141 34.678 33.9942C34.1974 35.8233 33.0803 37.2602 31.487 38.0986C31.2535 38.2214 31.044 38.3222 31.0213 38.3226C30.9987 38.3231 31.0837 38.1134 31.2103 37.8565C31.7464 36.77 31.8073 35.7131 31.4022 34.5366C31.154 33.8164 30.6482 32.9374 29.6267 31.452C28.4391 29.7249 28.148 29.2652 27.8558 28.6562Z" fill="#FF007A"/>
<path d="M12.0863 35.137C13.6751 33.8137 15.652 32.8734 17.4527 32.5849C18.2288 32.4606 19.5216 32.5099 20.2403 32.6913C21.3922 32.9822 22.4227 33.6335 22.9586 34.4096C23.4823 35.1681 23.707 35.829 23.941 37.2996C24.0333 37.8796 24.1336 38.4622 24.164 38.5941C24.3397 39.3562 24.6816 39.9654 25.1052 40.2714C25.7781 40.7572 26.9368 40.7874 28.0766 40.3488C28.2701 40.2743 28.438 40.2229 28.4499 40.2345C28.4912 40.275 27.9172 40.654 27.5123 40.8535C26.9675 41.1221 26.5342 41.2258 25.9585 41.2258C24.9146 41.2258 24.0479 40.7019 23.3247 39.6337C23.1824 39.4235 22.8625 38.7938 22.6138 38.2345C21.8503 36.5164 21.4732 35.9931 20.5866 35.4203C19.8151 34.9219 18.82 34.8326 18.0715 35.1946C17.0882 35.6702 16.8139 36.9098 17.5181 37.6954C17.798 38.0076 18.32 38.2769 18.7467 38.3293C19.5453 38.4272 20.2314 37.828 20.2314 37.0327C20.2314 36.5164 20.0303 36.2217 19.5237 35.9962C18.8321 35.6882 18.0885 36.0482 18.092 36.6892C18.0935 36.9626 18.2143 37.1343 18.492 37.2583C18.6702 37.3378 18.6744 37.3441 18.529 37.3143C17.8943 37.1845 17.7456 36.4296 18.2559 35.9286C18.8686 35.327 20.1356 35.5925 20.5706 36.4136C20.7535 36.7585 20.7747 37.4454 20.6153 37.8602C20.2586 38.7886 19.2188 39.2768 18.1638 39.0111C17.4456 38.8302 17.1532 38.6344 16.2872 37.7544C14.7824 36.2254 14.1982 35.9291 12.0289 35.595L11.6133 35.531L12.0863 35.137Z" fill="#FF007A"/>
<path fill-rule="evenodd" clip-rule="evenodd" d="M0.724966 0.912843C5.64754 6.91779 13.2368 16.2672 13.6137 16.7906C13.9247 17.2228 13.8076 17.6114 13.2746 17.9159C12.9783 18.0852 12.369 18.2568 12.0639 18.2568C11.7189 18.2568 11.3301 18.0898 11.0471 17.8199C10.847 17.6292 10.0395 16.4172 8.17526 13.51C6.74897 11.2855 5.55526 9.4402 5.52265 9.40928C5.44737 9.33784 5.44864 9.34019 8.02986 13.9821C9.65066 16.8969 10.1978 17.9274 10.1978 18.0652C10.1978 18.3455 10.1217 18.4929 9.7776 18.8786C9.20413 19.5216 8.94772 20.2442 8.76268 21.7396C8.55519 23.416 7.97177 24.6001 6.35487 26.6268C5.40851 27.8132 5.25364 28.0306 5.0148 28.5088C4.71396 29.111 4.63126 29.4482 4.59776 30.2086C4.56232 31.0125 4.63135 31.5318 4.87566 32.3004C5.0896 32.9734 5.31291 33.4178 5.88384 34.3064C6.37655 35.0734 6.66021 35.6434 6.66021 35.8664C6.66021 36.0437 6.6939 36.0439 7.45738 35.8707C9.2844 35.4561 10.7679 34.7267 11.6023 33.833C12.1186 33.2798 12.2399 32.9743 12.2438 32.2162C12.2463 31.7203 12.2291 31.6165 12.0957 31.3313C11.8786 30.867 11.4833 30.481 10.6124 29.8825C9.47109 29.0983 8.98356 28.4671 8.8489 27.5988C8.73847 26.8865 8.86668 26.3839 9.49804 25.0539C10.1515 23.6772 10.3135 23.0907 10.423 21.703C10.4937 20.8065 10.5918 20.4529 10.848 20.1691C11.1153 19.8732 11.3559 19.773 12.0174 19.6821C13.0957 19.5341 13.7825 19.2537 14.3469 18.7309C14.8366 18.2774 15.0414 17.8404 15.0729 17.1826L15.0968 16.684L14.8231 16.3634C13.8322 15.2021 0.061356 0 0.000377083 0C-0.0126487 0 0.313425 0.410806 0.724966 0.912843ZM7.21649 31.1182C7.44048 30.7194 7.32145 30.2067 6.9467 29.9563C6.59264 29.7196 6.04251 29.8311 6.04251 30.1395C6.04251 30.2336 6.09436 30.3021 6.21104 30.3625C6.4075 30.464 6.42176 30.5784 6.26719 30.8118C6.11057 31.0484 6.12326 31.2563 6.30283 31.3975C6.59225 31.6253 7.00186 31.5001 7.21649 31.1182Z" fill="#FF007A"/>
<path fill-rule="evenodd" clip-rule="evenodd" d="M15.7211 19.7911C15.2116 19.9519 14.7163 20.5065 14.563 21.088C14.4695 21.4428 14.5225 22.0651 14.6627 22.2574C14.889 22.5677 15.1079 22.6496 15.7006 22.6453C16.8609 22.637 17.8696 22.1259 17.9868 21.4868C18.083 20.9631 17.64 20.2372 17.0297 19.9185C16.7149 19.7542 16.0451 19.6889 15.7211 19.7911ZM17.0776 20.8804C17.2566 20.6193 17.1782 20.3371 16.874 20.1463C16.2943 19.7828 15.4179 20.0836 15.4179 20.6459C15.4179 20.9258 15.875 21.2312 16.294 21.2312C16.5728 21.2312 16.9544 21.0604 17.0776 20.8804Z" fill="#FF007A"/>
</svg>
